<svg width="48" height="49" viewBox="0 0 48 49" fill="none" xmlns="http://www.w3.org/2000/svg">
<path d="M9.65333 20.9281C13.4933 28.4748 19.68 34.6348 27.2267 38.5014L33.0933 32.6348C33.8133 31.9148 34.88 31.6748 35.8133 31.9948C38.8 32.9815 42.0267 33.5148 45.3333 33.5148C46.8 33.5148 48 34.7148 48 36.1815V45.4881C48 46.9548 46.8 48.1548 45.3333 48.1548C20.2933 48.1548 0 27.8615 0 2.82145C0 1.35479 1.2 0.154785 2.66667 0.154785H12C13.4667 0.154785 14.6667 1.35479 14.6667 2.82145C14.6667 6.15479 15.2 9.35479 16.1867 12.3415C16.48 13.2748 16.2667 14.3148 15.52 15.0615L9.65333 20.9281Z" fill="#FDFDFD"/>
</svg>
