<svg width="56" height="47" viewBox="0 0 56 47" fill="none" xmlns="http://www.w3.org/2000/svg">
<path d="M55.7867 6.15462C53.7333 7.08796 51.52 7.70129 49.2267 7.99462C51.5733 6.58129 53.3867 4.34129 54.24 1.64796C52.0267 2.98129 49.5733 3.91462 46.9867 4.44796C44.88 2.15462 41.92 0.821289 38.56 0.821289C32.2933 0.821289 27.1733 5.94129 27.1733 12.2613C27.1733 13.168 27.28 14.048 27.4667 14.8746C17.9733 14.3946 9.52 9.83462 3.89333 2.92796C2.90667 4.60796 2.34667 6.58129 2.34667 8.66129C2.34667 12.6346 4.34667 16.1546 7.44 18.1546C5.54667 18.1546 3.78667 17.6213 2.24 16.8213V16.9013C2.24 22.448 6.18667 27.088 11.4133 28.128C9.73527 28.5872 7.97359 28.6511 6.26667 28.3146C6.99095 30.5879 8.40943 32.577 10.3227 34.0024C12.236 35.4278 14.5479 36.2178 16.9333 36.2613C12.8897 39.4625 7.87732 41.1928 2.72 41.1679C1.81333 41.1679 0.906667 41.1146 0 41.008C5.06667 44.2613 11.0933 46.1546 17.5467 46.1546C38.56 46.1546 50.1067 28.7146 50.1067 13.5946C50.1067 13.088 50.1067 12.608 50.08 12.1013C52.32 10.5013 54.24 8.47462 55.7867 6.15462Z" fill="#FDFDFD"/>
</svg>
